<svg xmlns="http://www.w3.org/2000/svg" width="1006.367" height="764.026" viewBox="0 0 1006.367 764.026"><defs><style>.a{fill:#f2f2f2;}.b{fill:#182951;}.c,.e{opacity:0.1;}.d{fill:#3f3d56;}.e,.f{fill:#1c346c;}.g{fill:#f5c33d;}.h{fill:#2f2e41;}.i{fill:#fbbebe;}</style></defs><g transform="translate(0 0)"><path class="a" d="M526.727,698C310.119,681.52,51.805,513.685,64.956,340.872S328.287,7.182,544.894,23.666,886.188,363.11,873.037,535.924,743.333,714.489,526.727,698Z" transform="translate(-39.837 -22.5)"/><ellipse class="b" cx="452.16" cy="27.702" rx="452.16" ry="27.702" transform="translate(52.896 647.858)"/><ellipse class="c" cx="385.141" cy="18.319" rx="385.141" ry="18.319" transform="translate(119.915 656.794)"/><ellipse class="d" cx="189.616" cy="16.532" rx="189.616" ry="16.532" transform="translate(0 730.963)"/><ellipse class="e" cx="161.511" cy="10.932" rx="161.511" ry="10.932" transform="translate(28.105 736.296)"/><rect class="f" width="671.985" height="527.223" transform="translate(175.318 144.763)"/><path class="a" d="M580.562,264.65H414.784a2.012,2.012,0,0,1,0-4.024H580.562a2.012,2.012,0,0,1,0,4.024Z" transform="translate(-76.897 -47.837)"/><path class="a" d="M772.334,289.416H511.6a2.012,2.012,0,0,1,0-4.024H772.334a2.012,2.012,0,1,1,0,4.024Z" transform="translate(-87.198 -50.472)"/><path class="a" d="M581.463,314.182H415.684a2.012,2.012,0,1,1,0-4.024H581.463a2.012,2.012,0,0,1,0,4.024Z" transform="translate(-76.992 -53.108)"/><path class="a" d="M783.641,314.632H617.863a2.012,2.012,0,1,1,0-4.024H783.641a2.012,2.012,0,0,1,0,4.024Z" transform="translate(-98.505 -53.155)"/><path class="a" d="M581.913,338.947H416.134a2.012,2.012,0,0,1,0-4.024H581.913a2.012,2.012,0,0,1,0,4.024Z" transform="translate(-77.04 -55.743)"/><path class="a" d="M582.363,363.713H416.585a2.012,2.012,0,0,1,0-4.024H582.363a2.012,2.012,0,0,1,0,4.024Z" transform="translate(-77.088 -58.378)"/><path class="a" d="M680.653,265.1h-47.48a2.012,2.012,0,1,1,0-4.024h47.48a2.012,2.012,0,0,1,0,4.024Z" transform="translate(-100.134 -47.885)"/><path class="a" d="M680.653,338.947h-47.48a2.012,2.012,0,1,1,0-4.024h47.48a2.012,2.012,0,0,1,0,4.024Z" transform="translate(-100.134 -55.743)"/><path class="a" d="M680.653,363.263H633.172a2.012,2.012,0,1,1,0-4.024h47.48a2.012,2.012,0,0,1,0,4.024Z" transform="translate(-100.134 -58.33)"/><path class="a" d="M769.81,363.263H722.329a2.012,2.012,0,1,1,0-4.024h47.48a2.012,2.012,0,0,1,0,4.024Z" transform="translate(-109.62 -58.33)"/><path class="a" d="M461.814,289.416h-47.48a2.012,2.012,0,1,1,0-4.024h47.48a2.012,2.012,0,1,1,0,4.024Z" transform="translate(-76.849 -50.472)"/><path class="a" d="M580.787,629.382H415.009a2.012,2.012,0,1,1,0-4.024H580.787a2.012,2.012,0,1,1,0,4.024Z" transform="translate(-76.921 -86.645)"/><path class="a" d="M579.887,678.913H414.108a2.012,2.012,0,1,1,0-4.024H579.887a2.012,2.012,0,1,1,0,4.024Z" transform="translate(-76.825 -91.916)"/><path class="a" d="M580.337,703.679H414.558a2.012,2.012,0,0,1,0-4.024H580.337a2.012,2.012,0,0,1,0,4.024Z" transform="translate(-76.873 -94.551)"/><path class="a" d="M673.673,679.363h-47.48a2.012,2.012,0,1,1,0-4.024h47.48a2.012,2.012,0,0,1,0,4.024Z" transform="translate(-99.391 -91.964)"/><path class="a" d="M673.673,703.679h-47.48a2.012,2.012,0,1,1,0-4.024h47.48a2.012,2.012,0,0,1,0,4.024Z" transform="translate(-99.391 -94.551)"/><path class="a" d="M762.83,679.363h-47.48a2.012,2.012,0,1,1,0-4.024h47.48a2.012,2.012,0,1,1,0,4.024Z" transform="translate(-108.877 -91.964)"/><path class="a" d="M772.559,654.147H511.82a2.012,2.012,0,0,1,0-4.024H772.559a2.012,2.012,0,0,1,0,4.024Z" transform="translate(-87.221 -89.281)"/><path class="a" d="M462.039,654.147h-47.48a2.012,2.012,0,0,1,0-4.024h47.48a2.012,2.012,0,0,1,0,4.024Z" transform="translate(-76.873 -89.281)"/><path class="a" d="M772.559,728.895H511.82a2.012,2.012,0,0,1,0-4.024H772.559a2.012,2.012,0,1,1,0,4.024Z" transform="translate(-87.221 -97.234)"/><path class="a" d="M462.039,728.895h-47.48a2.012,2.012,0,1,1,0-4.024h47.48a2.012,2.012,0,1,1,0,4.024Z" transform="translate(-76.873 -97.234)"/><path class="g" d="M511.394,401.13,447.014,464.7l64.38,63.575,14.485-14.485-48.687-48.688,49.089-49.09Z" transform="translate(-47.563 -42.681)"/><path class="g" d="M623.554,401.13l64.38,63.575-64.38,63.575-14.485-14.485,48.688-48.688-49.09-49.09Z" transform="translate(-64.764 -42.681)"/><circle class="g" cx="8.042" cy="8.042" r="8.042" transform="translate(185.148 150.124)"/><circle class="g" cx="8.042" cy="8.042" r="8.042" transform="translate(206.594 150.124)"/><circle class="g" cx="8.042" cy="8.042" r="8.042" transform="translate(228.041 150.124)"/><rect class="c" width="671.985" height="2.681" transform="translate(175.318 171.571)"/><path class="a" d="M1145.08,614.536c0,56.986-33.877,76.883-75.667,76.883s-75.667-19.9-75.667-76.883,75.667-129.481,75.667-129.481S1145.08,557.55,1145.08,614.536Z" transform="translate(-138.714 -71.717)"/><path class="d" d="M1034.809,660.2l.777-47.692,32.25-59-32.125,51.52.349-21.444,22.224-42.686L1036.15,577.91h0l.625-38.568,23.805-33.984-23.707,27.92.393-70.72-2.457,93.621.2-3.862-24.2-37.04,23.814,44.455-2.261,43.074-.062-1.144-27.9-38.98,27.809,43.019-.277,5.387-.054.081.027.442-5.719,109.284h7.64l.911-56.447,27.746-42.914Z" transform="translate(-106.871 -49.217)"/><path class="h" d="M156.433,772.966a38.539,38.539,0,0,1-7.308,3.13c-4.538,1.24-9.389.785-13.973,1.843-1.877.433-3.92,1.34-4.516,3.171a6.66,6.66,0,0,0,.495,4.131c5.065,14.851,8.118,30.62,16.2,44.073a66.7,66.7,0,0,0,12.5,15.18c1.836,1.655,3.918,3.275,6.376,3.534a6.477,6.477,0,0,0,6.586-9.1c-.724-1.609-2.071-2.856-2.939-4.393a16.761,16.761,0,0,1-1.626-6.247c-.8-6.352-1.567-12.991.634-19,1.476-4.032,4.184-7.47,6.44-11.123s4.13-7.839,3.628-12.1a21.021,21.021,0,0,0-3.262-8.091c-1.5-2.522-4.472-9.3-7.491-10.143C165.042,766.955,159.165,771.566,156.433,772.966Z" transform="translate(-46.858 -101.793)"/><path class="h" d="M251.237,828.9a12.53,12.53,0,0,1-.593,4.241c-.945,2.5-3.289,4.205-4.5,6.583-1.684,3.307-.921,7.3.2,10.843.7,2.219,1.617,4.528,3.5,5.9a11.519,11.519,0,0,0,5.32,1.7c16.117,2.231,32.489.951,48.753,1.418,2.964.085,6.1.189,8.69-1.26s4.187-5.09,2.427-7.477c-1.58-2.143-4.705-2.123-7.365-2.25a30.3,30.3,0,0,1-18.688-7.7,13.5,13.5,0,0,1-2.621-3.017,18.545,18.545,0,0,1-1.371-3.143,140.122,140.122,0,0,0-8.117-17.978c-.875-1.622-1.865-3.311-3.49-4.179a9.222,9.222,0,0,0-3.788-.827c-4.054-.263-14.551-1.642-17.685,1.51C249,816.179,251.3,825.2,251.237,828.9Z" transform="translate(-59.062 -106.423)"/><circle class="i" cx="25.892" cy="25.892" r="25.892" transform="translate(191.226 310.744)"/><path class="i" d="M252.762,421.716c-1.54,4.123-4.152,8-7.953,10.214l35.811,7.3a37.936,37.936,0,0,1-.5-15.968,9.205,9.205,0,0,0,.214-3.94c-.673-2.6-3.6-3.849-6.215-4.445-6.536-1.49-12.316-2.289-18.389-5.176C253.871,412.885,254.131,418.051,252.762,421.716Z" transform="translate(-59.025 -63.7)"/><path class="h" d="M240.612,423.43a28,28,0,0,1,24.407.638c4.591,2.419,8.393,6.071,12.127,9.675,3.443,3.321,7.115,7.124,7.36,11.9.118,2.314-.6,4.578-.969,6.866a23.024,23.024,0,0,0,12.314,23.653c2.845,4.739,3.432,10.481,3.476,16.008.165,20.942-6.442,42.143-1.725,62.548,1.108,4.791,2.825,9.431,3.782,14.254,1.239,6.247,1.178,12.671,1.826,19.007a85.127,85.127,0,0,0,4.569,20.1c-1.558,2.479-4.8,3.429-7.723,3.228a21.812,21.812,0,0,1-8.259-2.8c-12.62-6.458-24.18-14.974-37.251-20.463-8.648-3.631-17.861-5.893-26.25-10.087s-16.192-10.85-18.757-19.872c-1.109-3.9-1.177-8.011-1.238-12.066-.255-17.08-.492-34.346,3.226-51.019,3.279-14.7,9.6-28.768,10.977-43.769.449-4.883.458-10.11,3.187-14.184C229.546,431.288,237.873,429.8,240.612,423.43Z" transform="translate(-55.127 -64.895)"/><path class="h" d="M260.048,394.926c1.526-1.99,4.468-2.261,6.906-1.673s4.685,1.845,7.146,2.322a4.177,4.177,0,0,0,3.345-.47,4.865,4.865,0,0,0,1.444-3.19,60.906,60.906,0,0,0,.6-15.531,4.6,4.6,0,0,1,.142-2.178c.609-1.469,2.469-1.818,3.987-2.289a11.9,11.9,0,0,0,8.054-12.183,4.844,4.844,0,0,0-1.48-3.343,6.09,6.09,0,0,0-3.875-.919q-10.44-.084-20.88.005c-2.576.022-5.281.085-7.515,1.37-1.651.95-2.879,2.478-4.361,3.674-3.866,3.12-9.095,3.754-13.8,5.353a13.68,13.68,0,0,0-6.047,3.606,6.371,6.371,0,0,0-1.334,6.606,23.457,23.457,0,0,0,1.686,2.595c2.774,4.436.927,10.19,1.342,15.405.517,6.513,10.156,17.078,16.691,18.619C262.651,415.2,256.555,399.2,260.048,394.926Z" transform="translate(-57.656 -57.925)"/><path class="h" d="M246.442,713.777c.666,4.756,1.52,9.527,1.291,14.324-.319,6.7-2.734,13.148-3.18,19.837-.333,5,.438,10.046-.256,15-.444,3.175-1.48,6.236-2.121,9.377a38.778,38.778,0,0,0,6.231,29.726,4.867,4.867,0,0,0,1.808,1.752,5.1,5.1,0,0,0,2.241.3,160.818,160.818,0,0,0,22.492-2.044,2.157,2.157,0,0,0,1.444-.637,2.023,2.023,0,0,0,.314-.852c1.379-7.092-1.767-14.2-2.566-21.382-.854-7.667.985-15.35,2.811-22.845a101.458,101.458,0,0,1,3.1-10.927c.883-2.41,1.949-4.755,2.714-7.205a54.928,54.928,0,0,0,1.968-11.8q.8-9.45.844-18.943a79.487,79.487,0,0,0-1.488-17.881c-1.678-7.451-5.115-14.37-8.521-21.206a13.431,13.431,0,0,0-5.02,2.386,112.022,112.022,0,0,1-13.717,7.578c-3.187,1.481-9.4,2.532-11.425,5.617-1.995,3.042-.708,9.249-.555,12.6Q245.241,705.2,246.442,713.777Z" transform="translate(-58.666 -91.223)"/><path class="c" d="M246.442,713.777c.666,4.756,1.52,9.527,1.291,14.324-.319,6.7-2.734,13.148-3.18,19.837-.333,5,.438,10.046-.256,15-.444,3.175-1.48,6.236-2.121,9.377a38.778,38.778,0,0,0,6.231,29.726,4.867,4.867,0,0,0,1.808,1.752,5.1,5.1,0,0,0,2.241.3,160.818,160.818,0,0,0,22.492-2.044,2.157,2.157,0,0,0,1.444-.637,2.023,2.023,0,0,0,.314-.852c1.379-7.092-1.767-14.2-2.566-21.382-.854-7.667.985-15.35,2.811-22.845a101.458,101.458,0,0,1,3.1-10.927c.883-2.41,1.949-4.755,2.714-7.205a54.928,54.928,0,0,0,1.968-11.8q.8-9.45.844-18.943a79.487,79.487,0,0,0-1.488-17.881c-1.678-7.451-5.115-14.37-8.521-21.206a13.431,13.431,0,0,0-5.02,2.386,112.022,112.022,0,0,1-13.717,7.578c-3.187,1.481-9.4,2.532-11.425,5.617-1.995,3.042-.708,9.249-.555,12.6Q245.241,705.2,246.442,713.777Z" transform="translate(-58.666 -91.223)"/><path class="h" d="M203.816,605.518c-3.438,9.257,1.616,19.26,6.007,28.105,10.818,21.791,18.33,45.044,25.8,68.2.56,1.734,1.119,3.626.495,5.338a6.993,6.993,0,0,1-2.521,2.991c-5.152,3.913-11.712,5.307-17.849,7.354a80.59,80.59,0,0,0-16.927,7.935c-4.447,2.756-8.613,5.937-12.771,9.113L172.815,744.66A8.848,8.848,0,0,0,170.6,746.8c-1.277,2-.754,4.618-.118,6.906a117.431,117.431,0,0,0,6.48,17.686,6.174,6.174,0,0,0,2.35,3.08c2.066,1.11,4.593-.362,6.17-2.1s2.942-3.9,5.166-4.64,4.666.157,6.986-.169c3.752-.527,6.243-3.983,8.947-6.636,11.05-10.841,29.5-10.054,41.653-19.639a52.927,52.927,0,0,1,5.568-4.35c2.055-1.215,4.385-1.881,6.517-2.955,6.484-3.265,10.561-10.016,12.745-16.94s2.807-14.233,4.376-21.322a92.713,92.713,0,0,0,2.24-11.026,59.068,59.068,0,0,0-.226-10.425l-4.386-54.255c-.357-4.417-.715-8.84-1.408-13.217-13.026.466-26.042.99-39.075,1.144C224.218,608.07,213.656,608.8,203.816,605.518Z" transform="translate(-51.046 -84.535)"/><path class="h" d="M202.356,617.187c1.767,2.842,6.068,2.783,9.029,1.225s5.262-4.175,8.231-5.72c3.989-2.076,8.709-2,13.2-1.871,7.116.2,14.32.415,21.167,2.365,7.082,2.017,13.976,5.9,21.3,5.126a4.38,4.38,0,0,0,3.361-1.578,4.954,4.954,0,0,0,.554-2.534l.24-6.4a5.778,5.778,0,0,0-.509-3.24,5.435,5.435,0,0,0-2.427-1.858c-10.422-5.045-22.308-5.985-33.881-6.381q-8.824-.3-17.655-.249c-5,.031-10.994-.692-15.851.642C202.6,598.51,199.049,611.868,202.356,617.187Z" transform="translate(-54.374 -83.512)"/><path class="g" d="M267.627,431.109c-13.656-.121-26.031-9.135-39.686-9.354a10.29,10.29,0,0,0-4.819.831c-1.9.958-3.154,2.812-4.6,4.377-4.038,4.372-9.884,6.707-14.032,10.974-3.889,4-6.052,9.963-4.517,15.328s7.331,9.48,12.76,8.19a32.885,32.885,0,0,1,12.812-17.407,65.124,65.124,0,0,1,10.013-5.256c6.137-2.781,13-5.614,19.407-3.53a27.379,27.379,0,0,1,6.621,3.61l10.682,7.176C271.024,441.139,269.9,435.633,267.627,431.109Z" transform="translate(-54.201 -64.979)"/><path class="g" d="M210.289,458.032c-1.813,2.262.8,5.54.4,8.412-.266,1.908-1.836,3.365-2.49,5.177-.677,1.877-.318,3.956-.575,5.935a25.454,25.454,0,0,1-1.139,4.226,75.934,75.934,0,0,0-2.4,12.533l-2.39,17.85a67.63,67.63,0,0,0-.756,8.112,24.223,24.223,0,0,1-.4,6.065c-.529,1.951-1.7,3.657-2.49,5.518s-1.154,4.112-.089,5.83a10.191,10.191,0,0,0-2.133,12.72,7.058,7.058,0,0,1,1.1,2.024,5.2,5.2,0,0,1-.484,2.985l-2.417,6.44c-.619,1.648-.814,4.158.906,4.534a15.2,15.2,0,0,0-3.263,5.153,6.136,6.136,0,0,0,.869,5.813,7.41,7.41,0,0,1,1.514,1.838,4.891,4.891,0,0,1-.175,2.9,10.639,10.639,0,0,0,1.316,8.34,7.481,7.481,0,0,0,7.523,3.225c4.835-1.09,9.179-2.812,14.054-1.917,10.5,1.926,21.026,3.86,31.192,7.106,11.6,3.7,22.837,9.136,34.963,10.277a3.394,3.394,0,0,0,2.338-.364,3.511,3.511,0,0,0,1.081-2.223l3.748-17.572a180.817,180.817,0,0,0,3.445-19.684c.427-4.272.548-8.569.67-12.861l.966-34.163a34.133,34.133,0,0,0-1.966-14.851l-5.556-17.736c-3.171-10.122-10.444-19.1-13.034-29.383-1.639-6.51-2.85-13.5-7.245-18.57-6.266-7.234-17.108-8.359-26.6-7.115-4.287.562-8.61,1.531-12.318,3.755-4.288,2.571-7.446,6.62-10.5,10.577C215.43,452.2,212.867,454.817,210.289,458.032Z" transform="translate(-53.33 -66.302)"/><path class="i" d="M237.242,570.684c.782,3.371,2.424,6.48,3.429,9.791,1.684,5.548,1.541,11.523,3.221,17.073.705,2.329,1.727,4.565,2.234,6.946,1.18,5.55-.543,11.291-2.684,16.546s-4.748,10.436-5.443,16.067c-.489,3.966.214,8.445,3.271,11.019,3.174,2.672,7.786,2.491,11.92,2.136a12.523,12.523,0,0,0,4.326-.9c3.161-1.5,4.493-5.236,5.232-8.655,2.476-11.455,1.769-23.328,1.049-35.026l-1.882-30.592c-.362-5.889-.75-11.9-2.565-17.556-.66-2.057-1.811-6.214-3.69-7.528-1.861-1.3-7.175-1.359-9.48-1.467C235.369,548.029,235.49,563.118,237.242,570.684Z" transform="translate(-58.125 -78.47)"/><path class="h" d="M248.174,446.846a7.442,7.442,0,0,0-7.124.629,21.955,21.955,0,0,0-5.336,5.181c-4.771,5.824-9.821,12.506-9.114,20,.265,2.81,1.341,5.47,2.071,8.2,3.2,11.956-.338,24.6.067,36.971.234,7.148,1.79,14.178,3.339,21.16.316,1.425.822,3.074,2.2,3.554a4.78,4.78,0,0,0,3.179-.493,25.352,25.352,0,0,1,23.2,2.925c2.56-1.366,1.6-5.686,1.027-8.53-1.705-8.451.61-17.17,3.421-25.32s6.175-16.291,6.641-24.9c.528-9.755-2.706-19.276-5.9-28.508-.7-2.015-1.458-4.129-3.073-5.521a12.213,12.213,0,0,0-4.649-2.124C254.738,449.064,251.305,448.486,248.174,446.846Z" transform="translate(-57.08 -67.582)"/></g></svg>